<?xml version="1.0" standalone="no"?>
<!DOCTYPE svg PUBLIC "-//W3C//DTD SVG 20010904//EN"
 "http://www.w3.org/TR/2001/REC-SVG-20010904/DTD/svg10.dtd">
<svg version="1.0" xmlns="http://www.w3.org/2000/svg"
 width="258.000000pt" height="250.000000pt" viewBox="0 0 258.000000 250.000000"
 preserveAspectRatio="xMidYMid meet">

<g transform="translate(0.000000,250.000000) scale(0.100000,-0.100000)"
fill="#000000" stroke="none">
<path d="M0 1250 l0 -1250 1290 0 1290 0 0 1250 0 1250 -1290 0 -1290 0 0
-1250z m2450 1130 c20 -20 20 -33 20 -1139 0 -1004 -2 -1121 -16 -1135 -14
-14 -132 -16 -1154 -16 -1022 0 -1140 2 -1154 16 -14 14 -16 130 -16 1133 0
1163 -1 1139 40 1154 8 3 520 6 1138 6 1109 1 1122 1 1142 -19z"/>
<path d="M260 1240 l0 -1030 1040 0 1040 0 0 1030 0 1030 -1040 0 -1040 0 0
-1030z m545 102 c0 -376 3 -494 13 -518 19 -44 59 -64 130 -64 71 0 106 22
122 78 6 23 10 218 10 515 l0 477 100 0 100 0 0 -498 c0 -571 0 -571 -76 -652
-68 -72 -126 -94 -254 -94 -159 -1 -247 39 -304 137 -42 72 -46 132 -46 634
l0 473 103 0 102 0 0 -488z m1096 455 c111 -54 134 -126 126 -387 -3 -119 -9
-175 -20 -201 -44 -100 -118 -140 -274 -147 l-103 -5 0 -231 0 -231 -100 0
-100 0 0 618 0 618 208 -3 c203 -3 208 -4 263 -31z"/>
<path d="M1634 1651 c-2 -2 -4 -96 -4 -208 l0 -203 65 0 c75 0 108 13 124 47
6 14 11 84 11 167 0 183 -3 189 -115 196 -42 3 -78 3 -81 1z"/>
<path d="M1842 1480 c0 -19 2 -27 5 -17 2 9 2 25 0 35 -3 9 -5 1 -5 -18z"/>
<path d="M2451 2204 c0 -11 3 -14 6 -6 3 7 2 16 -1 19 -3 4 -6 -2 -5 -13z"/>
<path d="M2352 1340 c0 -14 2 -19 5 -12 2 6 2 18 0 25 -3 6 -5 1 -5 -13z"/>
<path d="M2353 1215 c0 -22 2 -30 4 -17 2 12 2 30 0 40 -3 9 -5 -1 -4 -23z"/>
<path d="M2351 834 c0 -11 3 -14 6 -6 3 7 2 16 -1 19 -3 4 -6 -2 -5 -13z"/>
<path d="M2451 564 c0 -11 3 -14 6 -6 3 7 2 16 -1 19 -3 4 -6 -2 -5 -13z"/>
<path d="M2351 414 c0 -11 3 -14 6 -6 3 7 2 16 -1 19 -3 4 -6 -2 -5 -13z"/>
<path d="M2451 404 c0 -11 3 -14 6 -6 3 7 2 16 -1 19 -3 4 -6 -2 -5 -13z"/>
</g>
</svg>
